<svg width="578" height="549" viewBox="0 0 578 549" fill="none" xmlns="http://www.w3.org/2000/svg">
<rect x="82.5" y="17.5" width="324" height="71" stroke="black" stroke-dasharray="5 5"/>
<path d="M121.44 64H119.368V45.772H112.62V43.896H128.188V45.772H121.44V64ZM134.559 64.28C130.415 64.28 127.671 61.172 127.671 56.496C127.671 52.184 130.527 48.964 134.447 48.964C138.647 48.964 141.391 52.352 141.055 57.084H129.631C129.799 60.584 131.647 62.74 134.531 62.74C136.995 62.74 138.703 61.368 139.179 59.016H141.111C140.439 62.292 137.947 64.28 134.559 64.28ZM134.419 50.476C131.759 50.476 129.883 52.52 129.631 55.74H139.011C138.843 52.436 137.135 50.476 134.419 50.476ZM146.254 64H144.294V43.896H146.254V64ZM152.461 64H150.501V43.896H152.461V64ZM171.995 58.036V49.244H173.927V64H172.107V61.34C171.351 63.048 169.559 64.28 167.403 64.28C164.407 64.28 162.419 62.572 162.419 58.848V49.244H164.379V58.428C164.379 61.424 165.863 62.572 167.935 62.572C170.287 62.572 171.995 60.668 171.995 58.036ZM189.205 59.884C189.205 62.6 187.021 64.28 183.381 64.28C179.713 64.28 177.473 62.432 177.193 59.38H179.069C179.209 61.48 180.861 62.796 183.381 62.796C185.789 62.796 187.245 61.872 187.245 60.192C187.245 58.736 186.405 58.064 184.165 57.616L182.037 57.196C179.237 56.664 177.753 55.292 177.753 53.164C177.753 50.7 179.937 48.964 183.157 48.964C186.545 48.964 188.785 50.784 189.009 53.724H187.161C186.965 51.68 185.481 50.476 183.157 50.476C181.085 50.476 179.657 51.456 179.657 52.996C179.657 54.452 180.553 55.152 182.737 55.572L184.949 55.992C187.889 56.552 189.205 57.784 189.205 59.884ZM207.534 64V61.312C206.666 63.16 204.874 64.28 202.578 64.28C199.526 64.28 197.538 62.572 197.538 59.912C197.538 57.028 199.834 55.516 204.314 55.516C205.21 55.516 205.882 55.572 207.338 55.684V54.452C207.338 51.988 206.022 50.532 203.782 50.532C201.374 50.532 199.862 52.016 199.834 54.424H198.042C198.126 51.148 200.394 48.964 203.754 48.964C207.198 48.964 209.214 50.98 209.214 54.396V64H207.534ZM199.414 59.856C199.414 61.648 200.786 62.852 202.858 62.852C205.602 62.852 207.338 61.06 207.338 58.288V56.972C206.078 56.86 205.21 56.832 204.398 56.832C201.038 56.832 199.414 57.812 199.414 59.856ZM226.861 56.608C226.861 61.144 224.313 64.28 220.365 64.28C218.097 64.28 216.193 63.048 215.157 60.892V64H213.337V43.896H215.297V52.352C216.249 50.196 218.125 48.964 220.365 48.964C224.313 48.964 226.861 52.072 226.861 56.608ZM224.873 56.608C224.873 52.856 222.941 50.672 220.057 50.672C217.285 50.672 215.269 52.828 215.269 56.552C215.269 60.248 217.229 62.572 220.057 62.572C222.941 62.572 224.873 60.36 224.873 56.608ZM235.924 64.28C231.864 64.28 228.924 61.06 228.924 56.608C228.924 52.184 231.864 48.992 235.924 48.992C240.012 48.992 242.952 52.184 242.952 56.608C242.952 61.06 240.012 64.28 235.924 64.28ZM235.924 62.572C238.808 62.572 240.964 60.276 240.964 56.608C240.964 52.996 238.808 50.7 235.924 50.7C233.068 50.7 230.912 52.996 230.912 56.608C230.912 60.276 233.068 62.572 235.924 62.572ZM255.558 58.036V49.244H257.49V64H255.67V61.34C254.914 63.048 253.122 64.28 250.966 64.28C247.97 64.28 245.982 62.572 245.982 58.848V49.244H247.942V58.428C247.942 61.424 249.426 62.572 251.498 62.572C253.85 62.572 255.558 60.668 255.558 58.036ZM269.323 62.124V63.86C268.567 64.168 267.923 64.28 267.195 64.28C264.759 64.28 262.883 63.02 262.883 59.828V50.896H259.411V49.244H262.883V44.876H264.843V49.244H269.463V50.896H264.843V59.408C264.843 61.704 265.963 62.488 267.587 62.488C268.203 62.488 268.707 62.376 269.323 62.124ZM289.646 49.244L282.086 69.404H279.986L282.142 63.804L276.29 49.244H278.39L283.15 61.452L287.658 49.244H289.646ZM297.393 64.28C293.333 64.28 290.393 61.06 290.393 56.608C290.393 52.184 293.333 48.992 297.393 48.992C301.481 48.992 304.421 52.184 304.421 56.608C304.421 61.06 301.481 64.28 297.393 64.28ZM297.393 62.572C300.277 62.572 302.433 60.276 302.433 56.608C302.433 52.996 300.277 50.7 297.393 50.7C294.537 50.7 292.381 52.996 292.381 56.608C292.381 60.276 294.537 62.572 297.393 62.572ZM317.027 58.036V49.244H318.959V64H317.139V61.34C316.383 63.048 314.591 64.28 312.435 64.28C309.439 64.28 307.451 62.572 307.451 58.848V49.244H309.411V58.428C309.411 61.424 310.895 62.572 312.967 62.572C315.319 62.572 317.027 60.668 317.027 58.036ZM325.164 56.104V64H323.204V49.244H325.024V52.604C326.032 50.42 328.216 49.02 330.652 49.02V51.064C327.544 50.952 325.164 52.884 325.164 56.104ZM344.08 59.884C344.08 62.6 341.896 64.28 338.256 64.28C334.588 64.28 332.348 62.432 332.068 59.38H333.944C334.084 61.48 335.736 62.796 338.256 62.796C340.664 62.796 342.12 61.872 342.12 60.192C342.12 58.736 341.28 58.064 339.04 57.616L336.912 57.196C334.112 56.664 332.628 55.292 332.628 53.164C332.628 50.7 334.812 48.964 338.032 48.964C341.42 48.964 343.66 50.784 343.884 53.724H342.036C341.84 51.68 340.356 50.476 338.032 50.476C335.96 50.476 334.532 51.456 334.532 52.996C334.532 54.452 335.428 55.152 337.612 55.572L339.824 55.992C342.764 56.552 344.08 57.784 344.08 59.884ZM353.281 64.28C349.137 64.28 346.393 61.172 346.393 56.496C346.393 52.184 349.249 48.964 353.169 48.964C357.369 48.964 360.113 52.352 359.777 57.084H348.353C348.521 60.584 350.369 62.74 353.253 62.74C355.717 62.74 357.425 61.368 357.901 59.016H359.833C359.161 62.292 356.669 64.28 353.281 64.28ZM353.141 50.476C350.481 50.476 348.605 52.52 348.353 55.74H357.733C357.565 52.436 355.857 50.476 353.141 50.476ZM364.976 64H363.016V43.896H364.976V64ZM372.472 64H370.512V50.896H367.04V49.244H370.512V47.9C370.512 45.184 371.996 43.672 374.572 43.672C375.244 43.672 375.832 43.784 376.336 43.98V45.604C375.86 45.408 375.412 45.38 374.908 45.38C373.34 45.38 372.472 46.164 372.472 47.9V49.244H376.812V50.896H372.472V64Z" fill="black"/>
<rect x="33.5" y="280.5" width="369" height="83" stroke="black" stroke-dasharray="5 5"/>
<path d="M82.8847 333H71.4047V312.896H73.5047V331.124H82.8847V333ZM91.1974 333.28C87.0534 333.28 84.3094 330.172 84.3094 325.496C84.3094 321.184 87.1654 317.964 91.0854 317.964C95.2854 317.964 98.0294 321.352 97.6934 326.084H86.2694C86.4374 329.584 88.2854 331.74 91.1694 331.74C93.6334 331.74 95.3414 330.368 95.8174 328.016H97.7494C97.0774 331.292 94.5854 333.28 91.1974 333.28ZM91.0574 319.476C88.3974 319.476 86.5214 321.52 86.2694 324.74H95.6494C95.4814 321.436 93.7734 319.476 91.0574 319.476ZM108.493 331.124V332.86C107.737 333.168 107.093 333.28 106.365 333.28C103.929 333.28 102.053 332.02 102.053 328.828V319.896H98.5813V318.244H102.053V313.876H104.013V318.244H108.633V319.896H104.013V328.408C104.013 330.704 105.133 331.488 106.757 331.488C107.373 331.488 107.877 331.376 108.493 331.124ZM125.036 331.124V332.86C124.28 333.168 123.636 333.28 122.908 333.28C120.472 333.28 118.596 332.02 118.596 328.828V319.896H115.124V318.244H118.596V313.876H120.556V318.244H125.176V319.896H120.556V328.408C120.556 330.704 121.676 331.488 123.3 331.488C123.916 331.488 124.42 331.376 125.036 331.124ZM130.1 324.404V333H128.14V312.896H130.1V320.96C131.024 319.196 132.704 317.964 134.832 317.964C137.912 317.964 139.9 319.924 139.9 323.424V333H137.94V324.096C137.94 321.268 136.652 319.672 134.244 319.672C131.948 319.672 130.1 321.66 130.1 324.404ZM149.822 333.28C145.678 333.28 142.934 330.172 142.934 325.496C142.934 321.184 145.79 317.964 149.71 317.964C153.91 317.964 156.654 321.352 156.318 326.084H144.894C145.062 329.584 146.91 331.74 149.794 331.74C152.258 331.74 153.966 330.368 154.442 328.016H156.374C155.702 331.292 153.21 333.28 149.822 333.28ZM149.682 319.476C147.022 319.476 145.146 321.52 144.894 324.74H154.274C154.106 321.436 152.398 319.476 149.682 319.476ZM179.717 333L177.617 327.428H168.237L166.109 333H164.037L171.849 312.896H174.145L181.929 333H179.717ZM172.941 315.136L168.881 325.72H176.945L172.941 315.136ZM187.063 333H184.963V312.896H187.063V333ZM196.227 325.608C196.227 321.072 198.747 317.964 202.723 317.964C204.935 317.964 206.811 319.224 207.791 321.324V312.896H209.751V333H207.931V329.892C206.895 332.048 204.991 333.28 202.723 333.28C198.747 333.28 196.227 330.144 196.227 325.608ZM198.215 325.608C198.215 329.36 200.119 331.572 203.003 331.572C205.859 331.572 207.819 329.248 207.819 325.552C207.819 321.828 205.803 319.672 203.003 319.672C200.119 319.672 198.215 321.856 198.215 325.608ZM219.907 333.28C215.847 333.28 212.907 330.06 212.907 325.608C212.907 321.184 215.847 317.992 219.907 317.992C223.995 317.992 226.935 321.184 226.935 325.608C226.935 330.06 223.995 333.28 219.907 333.28ZM219.907 331.572C222.791 331.572 224.947 329.276 224.947 325.608C224.947 321.996 222.791 319.7 219.907 319.7C217.051 319.7 214.895 321.996 214.895 325.608C214.895 329.276 217.051 331.572 219.907 331.572ZM238.504 314.828C238.504 315.696 237.86 316.312 236.908 316.312C235.984 316.312 235.34 315.696 235.34 314.828C235.34 313.988 235.984 313.372 236.908 313.372C237.86 313.372 238.504 313.988 238.504 314.828ZM237.916 333H235.956V318.244H237.916V333ZM249.751 331.124V332.86C248.995 333.168 248.351 333.28 247.623 333.28C245.187 333.28 243.311 332.02 243.311 328.828V319.896H239.839V318.244H243.311V313.876H245.271V318.244H249.891V319.896H245.271V328.408C245.271 330.704 246.391 331.488 248.015 331.488C248.631 331.488 249.135 331.376 249.751 331.124ZM263.859 328.884C263.859 331.6 261.675 333.28 258.035 333.28C254.367 333.28 252.127 331.432 251.847 328.38H253.723C253.863 330.48 255.515 331.796 258.035 331.796C260.443 331.796 261.899 330.872 261.899 329.192C261.899 327.736 261.059 327.064 258.819 326.616L256.691 326.196C253.891 325.664 252.407 324.292 252.407 322.164C252.407 319.7 254.591 317.964 257.811 317.964C261.199 317.964 263.439 319.784 263.663 322.724H261.815C261.619 320.68 260.135 319.476 257.811 319.476C255.739 319.476 254.311 320.456 254.311 321.996C254.311 323.452 255.207 324.152 257.391 324.572L259.603 324.992C262.543 325.552 263.859 326.784 263.859 328.884ZM275.076 333H273.116V318.244H274.936V321.016C275.916 319.112 277.652 317.964 279.752 317.964C282.048 317.964 283.756 319.224 284.372 321.38C285.296 319.308 287.144 317.964 289.468 317.964C292.52 317.964 294.424 319.98 294.424 323.424V333H292.492V324.068C292.492 321.268 291.204 319.672 288.824 319.672C286.584 319.672 284.764 321.632 284.764 324.348V333H282.804V324.068C282.804 321.268 281.516 319.672 279.136 319.672C276.868 319.672 275.076 321.632 275.076 324.348V333ZM307.618 333V330.312C306.75 332.16 304.958 333.28 302.662 333.28C299.61 333.28 297.622 331.572 297.622 328.912C297.622 326.028 299.918 324.516 304.398 324.516C305.294 324.516 305.966 324.572 307.422 324.684V323.452C307.422 320.988 306.106 319.532 303.866 319.532C301.458 319.532 299.946 321.016 299.918 323.424H298.126C298.21 320.148 300.478 317.964 303.838 317.964C307.282 317.964 309.298 319.98 309.298 323.396V333H307.618ZM299.498 328.856C299.498 330.648 300.87 331.852 302.942 331.852C305.686 331.852 307.422 330.06 307.422 327.288V325.972C306.162 325.86 305.294 325.832 304.482 325.832C301.122 325.832 299.498 326.812 299.498 328.856ZM318.993 338.712C315.241 338.712 312.889 336.752 312.721 333.448H314.597C314.765 335.856 316.333 337.144 318.965 337.144C321.877 337.144 323.417 335.604 323.417 332.692V329.612C322.521 331.684 320.729 332.888 318.545 332.888C314.821 332.888 312.329 329.892 312.329 325.412C312.329 320.932 314.793 317.964 318.517 317.964C320.729 317.964 322.577 319.224 323.529 321.38V318.244H325.349V332.664C325.349 336.472 323.025 338.712 318.993 338.712ZM314.289 325.412C314.289 329.024 315.997 331.208 318.825 331.208C321.597 331.208 323.445 328.968 323.445 325.552C323.445 321.94 321.625 319.644 318.825 319.644C316.025 319.644 314.289 321.828 314.289 325.412ZM332.156 314.828C332.156 315.696 331.512 316.312 330.56 316.312C329.636 316.312 328.992 315.696 328.992 314.828C328.992 313.988 329.636 313.372 330.56 313.372C331.512 313.372 332.156 313.988 332.156 314.828ZM331.568 333H329.608V318.244H331.568V333ZM341.332 333.308C337.44 333.308 334.724 330.144 334.724 325.608C334.724 321.128 337.468 317.964 341.332 317.964C344.776 317.964 347.24 320.26 347.827 323.956H345.84C345.392 321.268 343.712 319.672 341.332 319.672C338.588 319.672 336.712 322.08 336.712 325.608C336.712 329.192 338.588 331.6 341.332 331.6C343.74 331.6 345.392 330.032 345.84 327.288H347.827C347.296 331.04 344.804 333.308 341.332 333.308Z" fill="black"/>
<rect x="82.5" y="402.5" width="369" height="146" stroke="black" stroke-dasharray="5 5"/>
<path d="M122.835 449.128C117.067 449.128 112.671 444.704 112.671 438.656C112.671 432.72 116.871 428.184 122.695 428.184C127.931 428.184 131.347 431.46 132.495 435.492H130.115C129.247 432.44 126.699 430.06 122.639 430.06C118.019 430.06 114.827 433.616 114.827 438.684C114.827 443.64 118.047 447.308 122.891 447.308C127.259 447.308 130.031 444.592 130.563 440.364H122.667V438.656H132.747C132.691 445.012 128.771 449.128 122.835 449.128ZM141.787 448.988C137.643 448.988 134.899 445.88 134.899 441.204C134.899 436.892 137.755 433.672 141.675 433.672C145.875 433.672 148.619 437.06 148.283 441.792H136.859C137.027 445.292 138.875 447.448 141.759 447.448C144.223 447.448 145.931 446.076 146.407 443.724H148.339C147.667 447 145.175 448.988 141.787 448.988ZM141.647 435.184C138.987 435.184 137.111 437.228 136.859 440.448H146.239C146.071 437.144 144.363 435.184 141.647 435.184ZM159.083 446.832V448.568C158.327 448.876 157.683 448.988 156.955 448.988C154.519 448.988 152.643 447.728 152.643 444.536V435.604H149.171V433.952H152.643V429.584H154.603V433.952H159.223V435.604H154.603V444.116C154.603 446.412 155.723 447.196 157.347 447.196C157.963 447.196 158.467 447.084 159.083 446.832ZM177.11 448.708V446.02C176.242 447.868 174.45 448.988 172.154 448.988C169.102 448.988 167.114 447.28 167.114 444.62C167.114 441.736 169.41 440.224 173.89 440.224C174.786 440.224 175.458 440.28 176.914 440.392V439.16C176.914 436.696 175.598 435.24 173.358 435.24C170.95 435.24 169.438 436.724 169.41 439.132H167.618C167.702 435.856 169.97 433.672 173.33 433.672C176.774 433.672 178.79 435.688 178.79 439.104V448.708H177.11ZM168.99 444.564C168.99 446.356 170.362 447.56 172.434 447.56C175.178 447.56 176.914 445.768 176.914 442.996V441.68C175.654 441.568 174.786 441.54 173.974 441.54C170.614 441.54 168.99 442.52 168.99 444.564ZM190.725 440.812V448.708H188.765V433.952H190.585V437.312C191.593 435.128 193.777 433.728 196.213 433.728V435.772C193.105 435.66 190.725 437.592 190.725 440.812ZM204.377 448.988C200.233 448.988 197.489 445.88 197.489 441.204C197.489 436.892 200.345 433.672 204.265 433.672C208.465 433.672 211.209 437.06 210.873 441.792H199.449C199.617 445.292 201.465 447.448 204.349 447.448C206.813 447.448 208.521 446.076 208.997 443.724H210.929C210.257 447 207.765 448.988 204.377 448.988ZM204.237 435.184C201.577 435.184 199.701 437.228 199.449 440.448H208.829C208.661 437.144 206.953 435.184 204.237 435.184ZM227.636 441.316C227.636 445.88 225.088 448.988 221.168 448.988C218.956 448.988 217.08 447.784 216.072 445.684V454.112H214.112V433.952H215.932V437.144C216.94 434.96 218.9 433.672 221.168 433.672C225.088 433.672 227.636 436.808 227.636 441.316ZM225.648 441.316C225.648 437.592 223.716 435.38 220.832 435.38C218.088 435.38 216.044 437.564 216.044 441.316C216.044 444.984 218.032 447.28 220.832 447.28C223.716 447.28 225.648 445.096 225.648 441.316ZM236.7 448.988C232.64 448.988 229.7 445.768 229.7 441.316C229.7 436.892 232.64 433.7 236.7 433.7C240.788 433.7 243.728 436.892 243.728 441.316C243.728 445.768 240.788 448.988 236.7 448.988ZM236.7 447.28C239.584 447.28 241.74 444.984 241.74 441.316C241.74 437.704 239.584 435.408 236.7 435.408C233.844 435.408 231.688 437.704 231.688 441.316C231.688 444.984 233.844 447.28 236.7 447.28ZM248.858 440.812V448.708H246.898V433.952H248.718V437.312C249.726 435.128 251.91 433.728 254.346 433.728V435.772C251.238 435.66 248.858 437.592 248.858 440.812ZM265.204 446.832V448.568C264.448 448.876 263.804 448.988 263.076 448.988C260.64 448.988 258.764 447.728 258.764 444.536V435.604H255.292V433.952H258.764V429.584H260.724V433.952H265.344V435.604H260.724V444.116C260.724 446.412 261.844 447.196 263.468 447.196C264.084 447.196 264.588 447.084 265.204 446.832ZM280.067 448.988C276.007 448.988 273.067 445.768 273.067 441.316C273.067 436.892 276.007 433.7 280.067 433.7C284.155 433.7 287.095 436.892 287.095 441.316C287.095 445.768 284.155 448.988 280.067 448.988ZM280.067 447.28C282.951 447.28 285.107 444.984 285.107 441.316C285.107 437.704 282.951 435.408 280.067 435.408C277.211 435.408 275.055 437.704 275.055 441.316C275.055 444.984 277.211 447.28 280.067 447.28ZM292.225 440.112V448.708H290.265V433.952H292.085V436.724C293.037 434.904 294.829 433.672 296.957 433.672C300.037 433.672 302.025 435.632 302.025 439.132V448.708H300.065V439.804C300.065 436.976 298.777 435.38 296.369 435.38C294.073 435.38 292.225 437.368 292.225 440.112ZM325.527 441.316C325.527 445.88 322.979 448.988 319.059 448.988C316.847 448.988 314.971 447.784 313.963 445.684V454.112H312.003V433.952H313.823V437.144C314.831 434.96 316.791 433.672 319.059 433.672C322.979 433.672 325.527 436.808 325.527 441.316ZM323.539 441.316C323.539 437.592 321.607 435.38 318.723 435.38C315.979 435.38 313.935 437.564 313.935 441.316C313.935 444.984 315.923 447.28 318.723 447.28C321.607 447.28 323.539 445.096 323.539 441.316ZM330.643 440.812V448.708H328.683V433.952H330.503V437.312C331.511 435.128 333.695 433.728 336.131 433.728V435.772C333.023 435.66 330.643 437.592 330.643 440.812ZM344.407 448.988C340.347 448.988 337.407 445.768 337.407 441.316C337.407 436.892 340.347 433.7 344.407 433.7C348.495 433.7 351.435 436.892 351.435 441.316C351.435 445.768 348.495 448.988 344.407 448.988ZM344.407 447.28C347.291 447.28 349.447 444.984 349.447 441.316C349.447 437.704 347.291 435.408 344.407 435.408C341.551 435.408 339.395 437.704 339.395 441.316C339.395 444.984 341.551 447.28 344.407 447.28ZM368.129 441.316C368.129 445.852 365.581 448.988 361.633 448.988C359.365 448.988 357.461 447.756 356.425 445.6V448.708H354.605V428.604H356.565V437.06C357.517 434.904 359.393 433.672 361.633 433.672C365.581 433.672 368.129 436.78 368.129 441.316ZM366.141 441.316C366.141 437.564 364.209 435.38 361.325 435.38C358.553 435.38 356.537 437.536 356.537 441.26C356.537 444.956 358.497 447.28 361.325 447.28C364.209 447.28 366.141 445.068 366.141 441.316ZM380.356 448.708V446.02C379.488 447.868 377.696 448.988 375.4 448.988C372.348 448.988 370.36 447.28 370.36 444.62C370.36 441.736 372.656 440.224 377.136 440.224C378.032 440.224 378.704 440.28 380.16 440.392V439.16C380.16 436.696 378.844 435.24 376.604 435.24C374.196 435.24 372.684 436.724 372.656 439.132H370.864C370.948 435.856 373.216 433.672 376.576 433.672C380.02 433.672 382.036 435.688 382.036 439.104V448.708H380.356ZM372.236 444.564C372.236 446.356 373.608 447.56 375.68 447.56C378.424 447.56 380.16 445.768 380.16 442.996V441.68C378.9 441.568 378.032 441.54 377.22 441.54C373.86 441.54 372.236 442.52 372.236 444.564ZM399.683 441.316C399.683 445.852 397.135 448.988 393.187 448.988C390.919 448.988 389.015 447.756 387.979 445.6V448.708H386.159V428.604H388.119V437.06C389.071 434.904 390.947 433.672 393.187 433.672C397.135 433.672 399.683 436.78 399.683 441.316ZM397.695 441.316C397.695 437.564 395.763 435.38 392.879 435.38C390.107 435.38 388.091 437.536 388.091 441.26C388.091 444.956 390.051 447.28 392.879 447.28C395.763 447.28 397.695 445.068 397.695 441.316ZM404.799 448.708H402.839V428.604H404.799V448.708ZM414.842 448.988C410.698 448.988 407.954 445.88 407.954 441.204C407.954 436.892 410.81 433.672 414.73 433.672C418.93 433.672 421.674 437.06 421.338 441.792H409.914C410.082 445.292 411.93 447.448 414.814 447.448C417.278 447.448 418.986 446.076 419.462 443.724H421.394C420.722 447 418.23 448.988 414.842 448.988ZM414.702 435.184C412.042 435.184 410.166 437.228 409.914 440.448H419.294C419.126 437.144 417.418 435.184 414.702 435.184ZM133.751 479.316C133.751 474.78 136.271 471.672 140.247 471.672C142.459 471.672 144.335 472.932 145.315 475.032V466.604H147.275V486.708H145.455V483.6C144.419 485.756 142.515 486.988 140.247 486.988C136.271 486.988 133.751 483.852 133.751 479.316ZM135.739 479.316C135.739 483.068 137.643 485.28 140.527 485.28C143.383 485.28 145.343 482.956 145.343 479.26C145.343 475.536 143.327 473.38 140.527 473.38C137.643 473.38 135.739 475.564 135.739 479.316ZM154.071 468.536C154.071 469.404 153.427 470.02 152.475 470.02C151.551 470.02 150.907 469.404 150.907 468.536C150.907 467.696 151.551 467.08 152.475 467.08C153.427 467.08 154.071 467.696 154.071 468.536ZM153.483 486.708H151.523V471.952H153.483V486.708ZM168.762 482.592C168.762 485.308 166.578 486.988 162.938 486.988C159.27 486.988 157.03 485.14 156.75 482.088H158.626C158.766 484.188 160.418 485.504 162.938 485.504C165.346 485.504 166.802 484.58 166.802 482.9C166.802 481.444 165.962 480.772 163.722 480.324L161.594 479.904C158.794 479.372 157.31 478 157.31 475.872C157.31 473.408 159.494 471.672 162.714 471.672C166.102 471.672 168.342 473.492 168.566 476.432H166.718C166.522 474.388 165.038 473.184 162.714 473.184C160.642 473.184 159.214 474.164 159.214 475.704C159.214 477.16 160.11 477.86 162.294 478.28L164.506 478.7C167.446 479.26 168.762 480.492 168.762 482.592ZM177.963 486.988C173.819 486.988 171.075 483.88 171.075 479.204C171.075 474.892 173.931 471.672 177.851 471.672C182.051 471.672 184.795 475.06 184.459 479.792H173.035C173.203 483.292 175.051 485.448 177.935 485.448C180.399 485.448 182.107 484.076 182.583 481.724H184.515C183.843 485 181.351 486.988 177.963 486.988ZM177.823 473.184C175.163 473.184 173.287 475.228 173.035 478.448H182.415C182.247 475.144 180.539 473.184 177.823 473.184ZM196.77 486.708V484.02C195.902 485.868 194.11 486.988 191.814 486.988C188.762 486.988 186.774 485.28 186.774 482.62C186.774 479.736 189.07 478.224 193.55 478.224C194.446 478.224 195.118 478.28 196.574 478.392V477.16C196.574 474.696 195.258 473.24 193.018 473.24C190.61 473.24 189.098 474.724 189.07 477.132H187.278C187.362 473.856 189.63 471.672 192.99 471.672C196.434 471.672 198.45 473.688 198.45 477.104V486.708H196.77ZM188.65 482.564C188.65 484.356 190.022 485.56 192.094 485.56C194.838 485.56 196.574 483.768 196.574 480.996V479.68C195.314 479.568 194.446 479.54 193.634 479.54C190.274 479.54 188.65 480.52 188.65 482.564ZM213.605 482.592C213.605 485.308 211.421 486.988 207.781 486.988C204.113 486.988 201.873 485.14 201.593 482.088H203.469C203.609 484.188 205.261 485.504 207.781 485.504C210.189 485.504 211.645 484.58 211.645 482.9C211.645 481.444 210.805 480.772 208.565 480.324L206.437 479.904C203.637 479.372 202.153 478 202.153 475.872C202.153 473.408 204.337 471.672 207.557 471.672C210.945 471.672 213.185 473.492 213.409 476.432H211.561C211.365 474.388 209.881 473.184 207.557 473.184C205.485 473.184 204.057 474.164 204.057 475.704C204.057 477.16 204.953 477.86 207.137 478.28L209.349 478.7C212.289 479.26 213.605 480.492 213.605 482.592ZM222.807 486.988C218.663 486.988 215.919 483.88 215.919 479.204C215.919 474.892 218.775 471.672 222.695 471.672C226.895 471.672 229.639 475.06 229.303 479.792H217.879C218.047 483.292 219.895 485.448 222.779 485.448C225.243 485.448 226.951 484.076 227.427 481.724H229.359C228.687 485 226.195 486.988 222.807 486.988ZM222.667 473.184C220.007 473.184 218.131 475.228 217.879 478.448H227.259C227.091 475.144 225.383 473.184 222.667 473.184ZM243.574 482.592C243.574 485.308 241.39 486.988 237.75 486.988C234.082 486.988 231.842 485.14 231.562 482.088H233.438C233.578 484.188 235.23 485.504 237.75 485.504C240.158 485.504 241.614 484.58 241.614 482.9C241.614 481.444 240.774 480.772 238.534 480.324L236.406 479.904C233.606 479.372 232.122 478 232.122 475.872C232.122 473.408 234.306 471.672 237.526 471.672C240.914 471.672 243.154 473.492 243.378 476.432H241.53C241.334 474.388 239.85 473.184 237.526 473.184C235.454 473.184 234.026 474.164 234.026 475.704C234.026 477.16 234.922 477.86 237.106 478.28L239.318 478.7C242.258 479.26 243.574 480.492 243.574 482.592ZM250.228 485.784C250.228 487.856 248.66 489.788 245.972 489.872V488.696C247.568 488.584 248.66 487.604 248.772 486.316C248.548 486.428 248.352 486.456 248.128 486.456C247.232 486.456 246.588 485.756 246.588 484.916C246.588 483.936 247.316 483.292 248.268 483.292C249.584 483.292 250.228 484.3 250.228 485.784ZM265.566 487.016C261.674 487.016 258.958 483.852 258.958 479.316C258.958 474.836 261.702 471.672 265.566 471.672C269.01 471.672 271.474 473.968 272.062 477.664H270.074C269.626 474.976 267.946 473.38 265.566 473.38C262.822 473.38 260.946 475.788 260.946 479.316C260.946 482.9 262.822 485.308 265.566 485.308C267.974 485.308 269.626 483.74 270.074 480.996H272.062C271.53 484.748 269.038 487.016 265.566 487.016ZM284.298 486.708V484.02C283.43 485.868 281.638 486.988 279.342 486.988C276.29 486.988 274.302 485.28 274.302 482.62C274.302 479.736 276.598 478.224 281.078 478.224C281.974 478.224 282.646 478.28 284.102 478.392V477.16C284.102 474.696 282.786 473.24 280.546 473.24C278.138 473.24 276.626 474.724 276.598 477.132H274.806C274.89 473.856 277.158 471.672 280.518 471.672C283.962 471.672 285.978 473.688 285.978 477.104V486.708H284.298ZM276.178 482.564C276.178 484.356 277.55 485.56 279.622 485.56C282.366 485.56 284.102 483.768 284.102 480.996V479.68C282.842 479.568 281.974 479.54 281.162 479.54C277.802 479.54 276.178 480.52 276.178 482.564ZM299.537 480.744V471.952H301.469V486.708H299.649V484.048C298.893 485.756 297.101 486.988 294.945 486.988C291.949 486.988 289.961 485.28 289.961 481.556V471.952H291.921V481.136C291.921 484.132 293.405 485.28 295.477 485.28C297.829 485.28 299.537 483.376 299.537 480.744ZM316.746 482.592C316.746 485.308 314.562 486.988 310.922 486.988C307.254 486.988 305.014 485.14 304.734 482.088H306.61C306.75 484.188 308.402 485.504 310.922 485.504C313.33 485.504 314.786 484.58 314.786 482.9C314.786 481.444 313.946 480.772 311.706 480.324L309.578 479.904C306.778 479.372 305.294 478 305.294 475.872C305.294 473.408 307.478 471.672 310.698 471.672C314.086 471.672 316.326 473.492 316.55 476.432H314.702C314.506 474.388 313.022 473.184 310.698 473.184C308.626 473.184 307.198 474.164 307.198 475.704C307.198 477.16 308.094 477.86 310.278 478.28L312.49 478.7C315.43 479.26 316.746 480.492 316.746 482.592ZM325.947 486.988C321.803 486.988 319.059 483.88 319.059 479.204C319.059 474.892 321.915 471.672 325.835 471.672C330.035 471.672 332.779 475.06 332.443 479.792H321.019C321.187 483.292 323.035 485.448 325.919 485.448C328.383 485.448 330.091 484.076 330.567 481.724H332.499C331.827 485 329.335 486.988 325.947 486.988ZM325.807 473.184C323.147 473.184 321.271 475.228 321.019 478.448H330.399C330.231 475.144 328.523 473.184 325.807 473.184ZM346.715 482.592C346.715 485.308 344.531 486.988 340.891 486.988C337.223 486.988 334.983 485.14 334.703 482.088H336.579C336.719 484.188 338.371 485.504 340.891 485.504C343.299 485.504 344.755 484.58 344.755 482.9C344.755 481.444 343.915 480.772 341.675 480.324L339.547 479.904C336.747 479.372 335.263 478 335.263 475.872C335.263 473.408 337.447 471.672 340.667 471.672C344.055 471.672 346.295 473.492 346.519 476.432H344.671C344.475 474.388 342.991 473.184 340.667 473.184C338.595 473.184 337.167 474.164 337.167 475.704C337.167 477.16 338.063 477.86 340.247 478.28L342.459 478.7C345.399 479.26 346.715 480.492 346.715 482.592ZM365.044 486.708V484.02C364.176 485.868 362.384 486.988 360.088 486.988C357.036 486.988 355.048 485.28 355.048 482.62C355.048 479.736 357.344 478.224 361.824 478.224C362.72 478.224 363.392 478.28 364.848 478.392V477.16C364.848 474.696 363.532 473.24 361.292 473.24C358.884 473.24 357.372 474.724 357.344 477.132H355.552C355.636 473.856 357.904 471.672 361.264 471.672C364.708 471.672 366.724 473.688 366.724 477.104V486.708H365.044ZM356.924 482.564C356.924 484.356 358.296 485.56 360.368 485.56C363.112 485.56 364.848 483.768 364.848 480.996V479.68C363.588 479.568 362.72 479.54 361.908 479.54C358.548 479.54 356.924 480.52 356.924 482.564ZM372.807 478.112V486.708H370.847V471.952H372.667V474.724C373.619 472.904 375.411 471.672 377.539 471.672C380.619 471.672 382.607 473.632 382.607 477.132V486.708H380.647V477.804C380.647 474.976 379.359 473.38 376.951 473.38C374.655 473.38 372.807 475.368 372.807 478.112ZM385.641 479.316C385.641 474.78 388.161 471.672 392.137 471.672C394.349 471.672 396.225 472.932 397.205 475.032V466.604H399.165V486.708H397.345V483.6C396.309 485.756 394.405 486.988 392.137 486.988C388.161 486.988 385.641 483.852 385.641 479.316ZM387.629 479.316C387.629 483.068 389.533 485.28 392.417 485.28C395.273 485.28 397.233 482.956 397.233 479.26C397.233 475.536 395.217 473.38 392.417 473.38C389.533 473.38 387.629 475.564 387.629 479.316ZM134.529 524.708L130.665 512.556L126.829 524.708H124.841L120.529 509.952H122.461L125.877 521.936L129.713 509.952H131.645L135.453 521.964L138.869 509.952H140.829L136.489 524.708H134.529ZM145.334 516.112V524.708H143.374V504.604H145.334V512.668C146.258 510.904 147.938 509.672 150.066 509.672C153.146 509.672 155.134 511.632 155.134 515.132V524.708H153.174V515.804C153.174 512.976 151.886 511.38 149.478 511.38C147.182 511.38 145.334 513.368 145.334 516.112ZM168.333 524.708V522.02C167.465 523.868 165.673 524.988 163.377 524.988C160.325 524.988 158.337 523.28 158.337 520.62C158.337 517.736 160.633 516.224 165.113 516.224C166.009 516.224 166.681 516.28 168.137 516.392V515.16C168.137 512.696 166.821 511.24 164.581 511.24C162.173 511.24 160.661 512.724 160.633 515.132H158.841C158.925 511.856 161.193 509.672 164.553 509.672C167.997 509.672 170.013 511.688 170.013 515.104V524.708H168.333ZM160.213 520.564C160.213 522.356 161.585 523.56 163.657 523.56C166.401 523.56 168.137 521.768 168.137 518.996V517.68C166.877 517.568 166.009 517.54 165.197 517.54C161.837 517.54 160.213 518.52 160.213 520.564ZM181.642 522.832V524.568C180.886 524.876 180.242 524.988 179.514 524.988C177.078 524.988 175.202 523.728 175.202 520.536V511.604H171.73V509.952H175.202V505.584H177.162V509.952H181.782V511.604H177.162V520.116C177.162 522.412 178.282 523.196 179.906 523.196C180.522 523.196 181.026 523.084 181.642 522.832ZM201.629 520.592C201.629 523.308 199.445 524.988 195.805 524.988C192.137 524.988 189.897 523.14 189.617 520.088H191.493C191.633 522.188 193.285 523.504 195.805 523.504C198.213 523.504 199.669 522.58 199.669 520.9C199.669 519.444 198.829 518.772 196.589 518.324L194.461 517.904C191.661 517.372 190.177 516 190.177 513.872C190.177 511.408 192.361 509.672 195.581 509.672C198.969 509.672 201.209 511.492 201.433 514.432H199.585C199.389 512.388 197.905 511.184 195.581 511.184C193.509 511.184 192.081 512.164 192.081 513.704C192.081 515.16 192.977 515.86 195.161 516.28L197.373 516.7C200.313 517.26 201.629 518.492 201.629 520.592ZM212.513 522.832V524.568C211.757 524.876 211.113 524.988 210.385 524.988C207.949 524.988 206.073 523.728 206.073 520.536V511.604H202.601V509.952H206.073V505.584H208.033V509.952H212.653V511.604H208.033V520.116C208.033 522.412 209.153 523.196 210.777 523.196C211.393 523.196 211.897 523.084 212.513 522.832ZM220.947 524.988C216.803 524.988 214.059 521.88 214.059 517.204C214.059 512.892 216.915 509.672 220.835 509.672C225.035 509.672 227.779 513.06 227.443 517.792H216.019C216.187 521.292 218.035 523.448 220.919 523.448C223.383 523.448 225.091 522.076 225.567 519.724H227.499C226.827 523 224.335 524.988 220.947 524.988ZM220.807 511.184C218.147 511.184 216.271 513.228 216.019 516.448H225.399C225.231 513.144 223.523 511.184 220.807 511.184ZM244.207 517.316C244.207 521.88 241.659 524.988 237.739 524.988C235.527 524.988 233.651 523.784 232.643 521.684V530.112H230.683V509.952H232.503V513.144C233.511 510.96 235.471 509.672 237.739 509.672C241.659 509.672 244.207 512.808 244.207 517.316ZM242.219 517.316C242.219 513.592 240.287 511.38 237.403 511.38C234.659 511.38 232.615 513.564 232.615 517.316C232.615 520.984 234.603 523.28 237.403 523.28C240.287 523.28 242.219 521.096 242.219 517.316ZM258.394 520.592C258.394 523.308 256.21 524.988 252.57 524.988C248.902 524.988 246.662 523.14 246.382 520.088H248.258C248.398 522.188 250.05 523.504 252.57 523.504C254.978 523.504 256.434 522.58 256.434 520.9C256.434 519.444 255.594 518.772 253.354 518.324L251.226 517.904C248.426 517.372 246.942 516 246.942 513.872C246.942 511.408 249.126 509.672 252.346 509.672C255.734 509.672 257.974 511.492 258.198 514.432H256.35C256.154 512.388 254.67 511.184 252.346 511.184C250.274 511.184 248.846 512.164 248.846 513.704C248.846 515.16 249.742 515.86 251.926 516.28L254.138 516.7C257.078 517.26 258.394 518.492 258.394 520.592ZM275.239 522.832V524.568C274.483 524.876 273.839 524.988 273.111 524.988C270.675 524.988 268.799 523.728 268.799 520.536V511.604H265.327V509.952H268.799V505.584H270.759V509.952H275.379V511.604H270.759V520.116C270.759 522.412 271.879 523.196 273.503 523.196C274.119 523.196 274.623 523.084 275.239 522.832ZM283.786 524.988C279.726 524.988 276.786 521.768 276.786 517.316C276.786 512.892 279.726 509.7 283.786 509.7C287.874 509.7 290.814 512.892 290.814 517.316C290.814 521.768 287.874 524.988 283.786 524.988ZM283.786 523.28C286.67 523.28 288.826 520.984 288.826 517.316C288.826 513.704 286.67 511.408 283.786 511.408C280.93 511.408 278.774 513.704 278.774 517.316C278.774 520.984 280.93 523.28 283.786 523.28ZM307.423 522.832V524.568C306.667 524.876 306.023 524.988 305.295 524.988C302.859 524.988 300.983 523.728 300.983 520.536V511.604H297.511V509.952H300.983V505.584H302.943V509.952H307.563V511.604H302.943V520.116C302.943 522.412 304.063 523.196 305.687 523.196C306.303 523.196 306.807 523.084 307.423 522.832ZM319.598 524.708V522.02C318.73 523.868 316.938 524.988 314.642 524.988C311.59 524.988 309.602 523.28 309.602 520.62C309.602 517.736 311.898 516.224 316.378 516.224C317.274 516.224 317.946 516.28 319.402 516.392V515.16C319.402 512.696 318.086 511.24 315.846 511.24C313.438 511.24 311.926 512.724 311.898 515.132H310.106C310.19 511.856 312.458 509.672 315.818 509.672C319.262 509.672 321.278 511.688 321.278 515.104V524.708H319.598ZM311.478 520.564C311.478 522.356 312.85 523.56 314.922 523.56C317.666 523.56 319.402 521.768 319.402 518.996V517.68C318.142 517.568 317.274 517.54 316.462 517.54C313.102 517.54 311.478 518.52 311.478 520.564ZM327.361 524.708H325.401V504.604H327.361V516.812L334.473 509.952H336.797L329.349 517.176L337.413 524.708H334.865L327.361 517.624V524.708ZM344.869 524.988C340.725 524.988 337.981 521.88 337.981 517.204C337.981 512.892 340.837 509.672 344.757 509.672C348.957 509.672 351.701 513.06 351.365 517.792H339.941C340.109 521.292 341.957 523.448 344.841 523.448C347.305 523.448 349.013 522.076 349.489 519.724H351.421C350.749 523 348.257 524.988 344.869 524.988ZM344.729 511.184C342.069 511.184 340.193 513.228 339.941 516.448H349.321C349.153 513.144 347.445 511.184 344.729 511.184ZM362.416 516.112V524.708H360.456V509.952H362.276V512.724C363.228 510.904 365.02 509.672 367.148 509.672C370.228 509.672 372.216 511.632 372.216 515.132V524.708H370.256V515.804C370.256 512.976 368.968 511.38 366.56 511.38C364.264 511.38 362.416 513.368 362.416 516.112ZM382.139 524.988C377.995 524.988 375.251 521.88 375.251 517.204C375.251 512.892 378.107 509.672 382.027 509.672C386.227 509.672 388.971 513.06 388.635 517.792H377.211C377.379 521.292 379.227 523.448 382.111 523.448C384.575 523.448 386.283 522.076 386.759 519.724H388.691C388.019 523 385.527 524.988 382.139 524.988ZM381.999 511.184C379.339 511.184 377.463 513.228 377.211 516.448H386.591C386.423 513.144 384.715 511.184 381.999 511.184ZM391.719 524.708H389.535L394.967 517.148L389.871 509.952H392.111L396.283 515.916L400.483 509.952H402.583L397.543 517.204L402.919 524.708H400.679L396.171 518.38L391.719 524.708ZM412.915 522.832V524.568C412.159 524.876 411.515 524.988 410.787 524.988C408.351 524.988 406.475 523.728 406.475 520.536V511.604H403.003V509.952H406.475V505.584H408.435V509.952H413.055V511.604H408.435V520.116C408.435 522.412 409.555 523.196 411.179 523.196C411.795 523.196 412.299 523.084 412.915 522.832Z" fill="black"/>
<path d="M407 321C406.448 321 406 321.448 406 322C406 322.552 406.448 323 407 323V321ZM455.293 474.793C454.902 475.183 454.902 475.817 455.293 476.207L461.657 482.571C462.047 482.962 462.681 482.962 463.071 482.571C463.462 482.181 463.462 481.547 463.071 481.157L457.414 475.5L463.071 469.843C463.462 469.453 463.462 468.819 463.071 468.429C462.681 468.038 462.047 468.038 461.657 468.429L455.293 474.793ZM407 323H460V321H407V323ZM483 346V451.5H485V346H483ZM460 474.5H456V476.5H460V474.5ZM483 451.5C483 464.203 472.703 474.5 460 474.5V476.5C473.807 476.5 485 465.307 485 451.5H483ZM460 323C472.703 323 483 333.297 483 346H485C485 332.193 473.807 321 460 321V323Z" fill="#99ADBF"/>
<rect x="181.5" y="125.5" width="281" height="115" stroke="black" stroke-dasharray="5 5"/>
<path d="M221.95 174.389H219.878V156.161H213.13V154.285H228.698V156.161H221.95V174.389ZM235.068 174.669C230.924 174.669 228.18 171.561 228.18 166.885C228.18 162.573 231.036 159.353 234.956 159.353C239.156 159.353 241.9 162.741 241.564 167.473H230.14C230.308 170.973 232.156 173.129 235.04 173.129C237.504 173.129 239.212 171.757 239.688 169.405H241.62C240.948 172.681 238.456 174.669 235.068 174.669ZM234.928 160.865C232.268 160.865 230.392 162.909 230.14 166.129H239.52C239.352 162.825 237.644 160.865 234.928 160.865ZM246.764 174.389H244.804V154.285H246.764V174.389ZM252.971 174.389H251.011V154.285H252.971V174.389ZM272.505 168.425V159.633H274.437V174.389H272.617V171.729C271.861 173.437 270.069 174.669 267.913 174.669C264.917 174.669 262.929 172.961 262.929 169.237V159.633H264.889V168.817C264.889 171.813 266.373 172.961 268.445 172.961C270.797 172.961 272.505 171.057 272.505 168.425ZM289.715 170.273C289.715 172.989 287.531 174.669 283.891 174.669C280.223 174.669 277.983 172.821 277.703 169.769H279.579C279.719 171.869 281.371 173.185 283.891 173.185C286.299 173.185 287.755 172.261 287.755 170.581C287.755 169.125 286.915 168.453 284.675 168.005L282.547 167.585C279.747 167.053 278.263 165.681 278.263 163.553C278.263 161.089 280.447 159.353 283.667 159.353C287.055 159.353 289.295 161.173 289.519 164.113H287.671C287.475 162.069 285.991 160.865 283.667 160.865C281.595 160.865 280.167 161.845 280.167 163.385C280.167 164.841 281.063 165.541 283.247 165.961L285.459 166.381C288.399 166.941 289.715 168.173 289.715 170.273ZM308.044 174.389V171.701C307.176 173.549 305.384 174.669 303.088 174.669C300.036 174.669 298.048 172.961 298.048 170.301C298.048 167.417 300.344 165.905 304.824 165.905C305.72 165.905 306.392 165.961 307.848 166.073V164.841C307.848 162.377 306.532 160.921 304.292 160.921C301.884 160.921 300.372 162.405 300.344 164.813H298.552C298.636 161.537 300.904 159.353 304.264 159.353C307.708 159.353 309.724 161.369 309.724 164.785V174.389H308.044ZM299.924 170.245C299.924 172.037 301.296 173.241 303.368 173.241C306.112 173.241 307.848 171.449 307.848 168.677V167.361C306.588 167.249 305.72 167.221 304.908 167.221C301.548 167.221 299.924 168.201 299.924 170.245ZM327.371 166.997C327.371 171.533 324.823 174.669 320.875 174.669C318.607 174.669 316.703 173.437 315.667 171.281V174.389H313.847V154.285H315.807V162.741C316.759 160.585 318.635 159.353 320.875 159.353C324.823 159.353 327.371 162.461 327.371 166.997ZM325.383 166.997C325.383 163.245 323.451 161.061 320.567 161.061C317.795 161.061 315.779 163.217 315.779 166.941C315.779 170.637 317.739 172.961 320.567 172.961C323.451 172.961 325.383 170.749 325.383 166.997ZM336.434 174.669C332.374 174.669 329.434 171.449 329.434 166.997C329.434 162.573 332.374 159.381 336.434 159.381C340.522 159.381 343.462 162.573 343.462 166.997C343.462 171.449 340.522 174.669 336.434 174.669ZM336.434 172.961C339.318 172.961 341.474 170.665 341.474 166.997C341.474 163.385 339.318 161.089 336.434 161.089C333.578 161.089 331.422 163.385 331.422 166.997C331.422 170.665 333.578 172.961 336.434 172.961ZM356.068 168.425V159.633H358V174.389H356.18V171.729C355.424 173.437 353.632 174.669 351.476 174.669C348.48 174.669 346.492 172.961 346.492 169.237V159.633H348.452V168.817C348.452 171.813 349.936 172.961 352.008 172.961C354.36 172.961 356.068 171.057 356.068 168.425ZM369.833 172.513V174.249C369.077 174.557 368.433 174.669 367.705 174.669C365.269 174.669 363.393 173.409 363.393 170.217V161.285H359.921V159.633H363.393V155.265H365.353V159.633H369.973V161.285H365.353V169.797C365.353 172.093 366.473 172.877 368.097 172.877C368.713 172.877 369.217 172.765 369.833 172.513ZM390.156 159.633L382.596 179.793H380.496L382.652 174.193L376.8 159.633H378.9L383.66 171.841L388.168 159.633H390.156ZM397.903 174.669C393.843 174.669 390.903 171.449 390.903 166.997C390.903 162.573 393.843 159.381 397.903 159.381C401.991 159.381 404.931 162.573 404.931 166.997C404.931 171.449 401.991 174.669 397.903 174.669ZM397.903 172.961C400.787 172.961 402.943 170.665 402.943 166.997C402.943 163.385 400.787 161.089 397.903 161.089C395.047 161.089 392.891 163.385 392.891 166.997C392.891 170.665 395.047 172.961 397.903 172.961ZM417.537 168.425V159.633H419.469V174.389H417.649V171.729C416.893 173.437 415.101 174.669 412.945 174.669C409.949 174.669 407.961 172.961 407.961 169.237V159.633H409.921V168.817C409.921 171.813 411.405 172.961 413.477 172.961C415.829 172.961 417.537 171.057 417.537 168.425ZM425.674 166.493V174.389H423.714V159.633H425.534V162.993C426.542 160.809 428.726 159.409 431.162 159.409V161.453C428.054 161.341 425.674 163.273 425.674 166.493ZM267.238 208.273C267.238 210.989 265.054 212.669 261.414 212.669C257.746 212.669 255.506 210.821 255.226 207.769H257.102C257.242 209.869 258.894 211.185 261.414 211.185C263.822 211.185 265.278 210.261 265.278 208.581C265.278 207.125 264.438 206.453 262.198 206.005L260.07 205.585C257.27 205.053 255.786 203.681 255.786 201.553C255.786 199.089 257.97 197.353 261.19 197.353C264.578 197.353 266.818 199.173 267.042 202.113H265.194C264.998 200.069 263.514 198.865 261.19 198.865C259.118 198.865 257.69 199.845 257.69 201.385C257.69 202.841 258.586 203.541 260.77 203.961L262.982 204.381C265.922 204.941 267.238 206.173 267.238 208.273ZM281.711 197.633L274.151 217.793H272.051L274.207 212.193L268.355 197.633H270.455L275.215 209.841L279.723 197.633H281.711ZM285.947 212.389H283.987V197.633H285.807V200.405C286.787 198.501 288.523 197.353 290.623 197.353C292.919 197.353 294.627 198.613 295.243 200.769C296.167 198.697 298.015 197.353 300.339 197.353C303.391 197.353 305.295 199.369 305.295 202.813V212.389H303.363V203.457C303.363 200.657 302.075 199.061 299.695 199.061C297.455 199.061 295.635 201.021 295.635 203.737V212.389H293.675V203.457C293.675 200.657 292.387 199.061 290.007 199.061C287.739 199.061 285.947 201.021 285.947 203.737V212.389ZM322.941 204.997C322.941 209.561 320.393 212.669 316.473 212.669C314.261 212.669 312.385 211.465 311.377 209.365V217.793H309.417V197.633H311.237V200.825C312.245 198.641 314.205 197.353 316.473 197.353C320.393 197.353 322.941 200.489 322.941 204.997ZM320.953 204.997C320.953 201.273 319.021 199.061 316.137 199.061C313.393 199.061 311.349 201.245 311.349 204.997C311.349 208.665 313.337 210.961 316.137 210.961C319.021 210.961 320.953 208.777 320.953 204.997ZM333.439 210.513V212.249C332.683 212.557 332.039 212.669 331.311 212.669C328.875 212.669 326.999 211.409 326.999 208.217V199.285H323.527V197.633H326.999V193.265H328.959V197.633H333.579V199.285H328.959V207.797C328.959 210.093 330.079 210.877 331.703 210.877C332.319 210.877 332.823 210.765 333.439 210.513ZM341.985 212.669C337.925 212.669 334.985 209.449 334.985 204.997C334.985 200.573 337.925 197.381 341.985 197.381C346.073 197.381 349.013 200.573 349.013 204.997C349.013 209.449 346.073 212.669 341.985 212.669ZM341.985 210.961C344.869 210.961 347.025 208.665 347.025 204.997C347.025 201.385 344.869 199.089 341.985 199.089C339.129 199.089 336.973 201.385 336.973 204.997C336.973 208.665 339.129 210.961 341.985 210.961ZM354.143 212.389H352.183V197.633H354.003V200.405C354.983 198.501 356.719 197.353 358.819 197.353C361.115 197.353 362.823 198.613 363.439 200.769C364.363 198.697 366.211 197.353 368.535 197.353C371.587 197.353 373.491 199.369 373.491 202.813V212.389H371.559V203.457C371.559 200.657 370.271 199.061 367.891 199.061C365.651 199.061 363.831 201.021 363.831 203.737V212.389H361.871V203.457C361.871 200.657 360.583 199.061 358.203 199.061C355.935 199.061 354.143 201.021 354.143 203.737V212.389ZM388.644 208.273C388.644 210.989 386.46 212.669 382.82 212.669C379.152 212.669 376.912 210.821 376.632 207.769H378.508C378.648 209.869 380.3 211.185 382.82 211.185C385.228 211.185 386.684 210.261 386.684 208.581C386.684 207.125 385.844 206.453 383.604 206.005L381.476 205.585C378.676 205.053 377.192 203.681 377.192 201.553C377.192 199.089 379.376 197.353 382.596 197.353C385.984 197.353 388.224 199.173 388.448 202.113H386.6C386.404 200.069 384.92 198.865 382.596 198.865C380.524 198.865 379.096 199.845 379.096 201.385C379.096 202.841 379.992 203.541 382.176 203.961L384.388 204.381C387.328 204.941 388.644 206.173 388.644 208.273Z" fill="black"/>
<circle cx="181" cy="125" r="18" fill="#1A1A1A"/>
<path d="M184.653 131.76V133H176.493V132.2L180.813 127.32C182.453 125.46 183.053 124.46 183.053 123.16C183.053 121.64 181.933 120.52 180.353 120.52C178.713 120.52 177.553 121.66 177.553 123.34H176.193C176.193 120.98 177.933 119.28 180.413 119.28C182.773 119.28 184.513 120.86 184.513 123.04C184.513 124.5 183.933 125.6 181.853 127.92L178.553 131.76H184.653Z" fill="white"/>
<path d="M411 52C410.448 52 410 52.4477 410 53C410 53.5523 410.448 54 411 54V52ZM466.293 182.293C465.902 182.683 465.902 183.317 466.293 183.707L472.657 190.071C473.047 190.462 473.681 190.462 474.071 190.071C474.462 189.681 474.462 189.047 474.071 188.657L468.414 183L474.071 177.343C474.462 176.953 474.462 176.319 474.071 175.929C473.681 175.538 473.047 175.538 472.657 175.929L466.293 182.293ZM411 54H519V52H411V54ZM542 77V159H544V77H542ZM519 182H467V184H519V182ZM542 159C542 171.703 531.703 182 519 182V184C532.807 184 544 172.807 544 159H542ZM519 54C531.703 54 542 64.2975 542 77H544C544 63.1929 532.807 52 519 52V54Z" fill="#99ADBF"/>
<path d="M177 184C177.552 184 178 183.552 178 183C178 182.448 177.552 182 177 182V184ZM29.7071 322.707C30.0976 322.317 30.0976 321.683 29.7071 321.293L23.3431 314.929C22.9526 314.538 22.3195 314.538 21.9289 314.929C21.5384 315.319 21.5384 315.953 21.9289 316.343L27.5858 322L21.9289 327.657C21.5384 328.047 21.5384 328.681 21.9289 329.071C22.3195 329.462 22.9526 329.462 23.3431 329.071L29.7071 322.707ZM177 182H25V184H177V182ZM0 207V298H2V207H0ZM25 323H29V321H25V323ZM0 298C0 311.807 11.1929 323 25 323V321C12.2975 321 2 310.703 2 298H0ZM25 182C11.1929 182 0 193.193 0 207H2C2 194.297 12.2974 184 25 184V182Z" fill="#99ADBF"/>
<circle cx="33" cy="280" r="18" fill="#1A1A1A"/>
<path d="M32.4573 288.18C29.7773 288.18 27.9373 286.6 27.8773 284.26H29.2373C29.3173 285.96 30.5773 287.04 32.4573 287.04C34.3973 287.04 35.5773 285.98 35.5773 284.28C35.5773 282.66 34.2573 281.62 32.1773 281.62H30.8373V280.46H32.1373C33.7973 280.46 34.9573 279.4 34.9573 277.88C34.9573 276.42 33.8773 275.42 32.3373 275.42C30.7373 275.42 29.6773 276.42 29.5973 277.98H28.2573C28.3173 275.86 30.0773 274.28 32.3773 274.28C34.7773 274.28 36.3973 275.74 36.3973 277.82C36.3973 279.22 35.5573 280.34 34.0773 280.96C35.9373 281.42 37.0173 282.62 37.0173 284.26C37.0173 286.58 35.1773 288.18 32.4573 288.18Z" fill="white"/>
<circle cx="82" cy="402" r="18" fill="#1A1A1A"/>
<path d="M86.2545 406.78H84.4345V410H83.0545V406.78H76.4745V405.84L83.4545 396.48H84.4345V405.56H86.2545V406.78ZM78.0945 405.56H83.0545V398.76L78.0945 405.56Z" fill="white"/>
<circle cx="84" cy="18" r="18" fill="#1A1A1A"/>
<path d="M84.8434 26H83.4634V13.68H80.8034V12.48H84.8434V26Z" fill="white"/>
</svg>
